#!OML:ASF X:\für Bonn\!DataBase\2005_08_10_Bjorn_Final\c3d\bjorn.ASF
:FULLY-SPECIFIED
:DEGREES
121
root 1.09919 17.4739 1.12572 -220.515 2.10419 179.924
lowerback 3.9411 1.71379 2.0292
upperback 14.5314 6.12238 -6.12003
thorax 14.8461 5.1538 -7.10821
lowerneck -2.62575 12.4447 -7.22011
upperneck 9.35158 16.7758 -8.31752
head 3.68599 7.19525 -0.916557
rclavicle 2.96189e-014 -1.39944e-013
rhumerus 2.06028 1.52681 -43.9412
rradius 40.6479
rwrist 3.36148
rhand -14.7195 21.7475
rfingers 7.12502
rthumb 11.4352 -7.92066
lclavicle 2.96189e-014 -1.39944e-013
lhumerus -336.252 -12.9376 -304.52
lradius 65.6886
lwrist -19.841
lhand -54.8211 -12.2067
lfingers 7.12502
lthumb -27.2091 15.8511
rfemur 22.1778 -8.59919 13.5004
rtibia 50.0311
rfoot -16.0438 22.0213
rtoes -5.0789
lfemur -39.6592 12.3235 -11.6156
ltibia 47.7267
lfoot 7.95091 7.69456
ltoes -14.6906
122
root 1.09349 17.4883 1.21984 -219.762 1.94096 180.344
lowerback 3.9906 1.6185 2.06918
upperback 14.4851 5.95642 -6.07239
thorax 14.7189 5.05757 -7.10078
lowerneck -2.87527 12.4195 -7.33314
upperneck 9.53039 16.794 -8.07427
head 3.75958 7.20063 -0.801415
rclavicle -5.88403e-014 1.59028e-014
rhumerus 1.57265 1.92436 -43.2727
rradius 41.0018
rwrist 3.27069
rhand -14.5065 21.4923
rfingers 7.12502
rthumb 11.6407 -8.16432
lclavicle -5.88403e-014 1.59028e-014
lhumerus -335.054 -13.7995 -304.873
lradius 66.4702
lwrist -20.0386
lhand -54.5555 -11.3309
lfingers 7.12502
lthumb -26.9549 16.7665
rfemur 21.335 -8.89653 14.1558
rtibia 49.6424
rfoot -16.5994 21.631
rtoes -5.39361
lfemur -39.2376 12.4383 -11.5411
ltibia 49.2555
lfoot 7.2754 7.20031
ltoes -13.7884
123
root 1.08809 17.5144 1.32001 -218.995 1.76465 180.706
lowerback 4.06571 1.51156 2.07427
upperback 14.4485 5.7879 -6.05078
thorax 14.5888 4.96244 -7.10399
lowerneck -3.12921 12.3945 -7.52915
upperneck 9.68422 16.811 -7.7338
head 3.80709 7.21181 -0.644332
rclavicle 2.5842e-015 -9.54166e-015
rhumerus 1.09795 2.25943 -42.6939
rradius 41.4329
rwrist 3.24059
rhand -14.2688 21.3561
rfingers 7.12502
rthumb 11.8699 -8.28748
lclavicle 2.5842e-015 -9.54166e-015
lhumerus -333.977 -14.5995 -305.287
lradius 67.3492
lwrist -20.0917
lhand -54.1753 -10.6561
lfingers 7.12502
lthumb -26.5912 17.4969
rfemur 20.466 -9.17227 14.7421
rtibia 49.1999
rfoot -16.983 21.2681
rtoes -5.45075
lfemur -38.8363 12.551 -11.4728
ltibia 50.8688
lfoot 6.58751 6.41173
ltoes -14.0187
124
root 1.08091 17.5389 1.42105 -218.187 1.60237 181.019
lowerback 4.13101 1.40976 2.09552
upperback 14.4159 5.63829 -6.06368
thorax 14.4819 4.88588 -7.15228
lowerneck -3.28952 12.3683 -7.72422
upperneck 9.71103 16.8069 -7.34568
head 3.78652 7.23249 -0.483184
rclavicle -1.03368e-014 1.59028e-014
rhumerus 0.606658 2.40912 -42.2566
rradius 41.9228
rwrist 3.32681
rhand -13.6633 21.4029
rfingers 7.12502
rthumb 12.4537 -8.20602
lclavicle -1.03368e-014 1.59028e-014
lhumerus -332.993 -15.4363 -305.85
lradius 68.3197
lwrist -19.901
lhand -53.8034 -10.0127
lfingers 7.12502
lthumb -26.2351 18.1938
rfemur 19.5178 -9.39202 15.3025
rtibia 48.7744
rfoot -17.2844 20.8641
rtoes -5.60214
lfemur -38.4595 12.6592 -11.3997
ltibia 52.5247
lfoot 5.87627 5.57117
ltoes -14.6654
125
root 1.07144 17.563 1.52411 -217.396 1.44055 181.28
lowerback 4.25557 1.30772 2.10542
upperback 14.3954 5.49989 -6.08695
thorax 14.3561 4.8189 -7.2071
lowerneck -3.43499 12.3303 -7.97954
upperneck 9.71056 16.7832 -6.88148
head 3.74033 7.2498 -0.293016
rclavicle -1.09332e-015 7.95139e-014
rhumerus 0.0439059 2.56126 -41.8818
rradius 42.5485
rwrist 3.24127
rhand -13.1668 21.4961
rfingers 7.12502
rthumb 12.9324 -8.08318
lclavicle -1.09332e-015 7.95139e-014
lhumerus -332.125 -16.2927 -306.492
lradius 69.253
lwrist -19.5799
lhand -53.5321 -9.7321
lfingers 7.12502
lthumb -25.9754 18.5128
rfemur 18.5307 -9.56407 15.7986
rtibia 48.4194
rfoot -17.4957 20.4941
rtoes -5.73847
lfemur -38.0502 12.7655 -11.3395
ltibia 54.1983
lfoot 5.21957 4.79749
ltoes -16.0919
126
root 1.06003 17.585 1.62896 -216.618 1.30033 181.466
lowerback 4.40795 1.22001 2.05266
upperback 14.4024 5.38939 -6.08042
thorax 14.2414 4.75886 -7.189
lowerneck -3.37818 12.2768 -8.28395
upperneck 9.46994 16.7017 -6.54132
head 3.58062 7.25244 -0.159428
rclavicle -3.79679e-014 -4.77083e-014
rhumerus -0.571678 2.93752 -41.497
rradius 43.2642
rwrist 2.57167
rhand -13.1297 21.7145
rfingers 7.12502
rthumb 12.9681 -7.8625
lclavicle -3.79679e-014 -4.77083e-014
lhumerus -331.324 -17.1058 -307.13
lradius 70.116
lwrist -19.1371
lhand -53.2917 -9.7834
lfingers 7.12502
lthumb -25.7451 18.495
rfemur 17.4858 -9.6676 16.2134
rtibia 48.1662
rfoot -17.6041 20.2152
rtoes -5.43544
lfemur -37.603 12.8767 -11.2942
ltibia 55.8898
lfoot 4.45546 4.22971
ltoes -18.0793
127
root 1.04777 17.6075 1.73923 -215.807 1.19149 181.638
lowerback 4.60788 1.1471 2.02699
upperback 14.385 5.29048 -6.07327
thorax 14.0714 4.70353 -7.18794
lowerneck -3.17562 12.197 -8.53914
upperneck 9.06901 16.5582 -6.29236
head 3.35365 7.2371 -0.0791256
rclavicle -4.74598e-014 -3.49861e-014
rhumerus -1.29948 3.33902 -41.1987
rradius 44.0097
rwrist 2.35869
rhand -13.6246 21.9803
rfingers 7.12502
rthumb 12.491 -7.62638
lclavicle -4.74598e-014 -3.49861e-014
lhumerus -330.624 -17.8852 -307.791
lradius 70.9163
lwrist -18.7438
lhand -53.0586 -10.3185
lfingers 7.12502
lthumb -25.5219 17.9921
rfemur 16.3334 -9.71199 16.6566
rtibia 47.9909
rfoot -17.6763 19.8931
rtoes -5.1627
lfemur -37.2101 12.9947 -11.2303
ltibia 57.6168
lfoot 3.66626 3.73669
ltoes -20.8282
128
root 1.03472 17.6312 1.85479 -214.949 1.10525 181.814
lowerback 4.80965 1.08219 2.01822
upperback 14.3592 5.19601 -6.05604
thorax 13.8915 4.64886 -7.1847
lowerneck -2.91705 12.0607 -8.75107
upperneck 8.60851 16.33 -6.14267
head 3.11336 7.18 -0.043485
rclavicle 4.24902e-014 7.63333e-014
rhumerus -2.10693 3.60058 -41.0681
rradius 44.8506
rwrist 2.25382
rhand -14.1602 22.2686
rfingers 7.12502
rthumb 11.9746 -7.36891
lclavicle 4.24902e-014 7.63333e-014
lhumerus -329.979 -18.5807 -308.505
lradius 71.6694
lwrist -18.3734
lhand -52.7472 -11.241
lfingers 7.12502
lthumb -25.2236 17.1119
rfemur 15.0797 -9.70676 17.1487
rtibia 47.8545
rfoot -17.738 19.5424
rtoes -4.86228
lfemur -36.8988 13.1109 -11.1265
ltibia 59.4105
lfoot 2.96407 3.39445
ltoes -23.0418
129
root 1.02109 17.6609 1.97329 -214.075 0.961567 181.904
lowerback 4.97361 1.00004 1.88773
upperback 14.3423 5.0857 -6.05223
thorax 13.7338 4.57402 -7.1253
lowerneck -2.7993 11.9342 -8.82039
upperneck 8.44076 16.1465 -6.05643
head 3.02099 7.11623 -0.0252344
rclavicle -8.67198e-015 -1.145e-013
rhumerus -2.89016 3.93761 -40.9872
rradius 45.8061
rwrist 2.1095
rhand -14.6698 22.44
rfingers 7.12502
rthumb 11.4832 -7.22543
lclavicle -8.67198e-015 -1.145e-013
lhumerus -329.468 -19.1877 -309.262
lradius 72.4197
lwrist -18.1432
lhand -52.439 -12.1159
lfingers 7.12502
lthumb -24.9282 16.2783
rfemur 13.8077 -9.67997 17.5244
rtibia 47.6836
rfoot -17.7361 19.1552
rtoes -4.5769
lfemur -36.6128 13.1473 -11.0988
ltibia 61.2856
lfoot 2.44219 3.32485
ltoes -24.8287
130
root 1.00642 17.7004 2.09824 -213.208 0.792647 181.928
lowerback 5.18825 0.910888 1.69296
upperback 14.3242 4.97083 -6.05797
thorax 13.5388 4.49123 -7.0424
lowerneck -2.77598 11.8084 -8.92896
upperneck 8.38554 15.9821 -5.94215
head 2.97934 7.04943 0.0180274
rclavicle -1.82882e-014 1.55847e-013
rhumerus -3.69575 4.37145 -40.9026
rradius 46.8878
rwrist 1.86993
rhand -15.176 22.4925
rfingers 7.12502
rthumb 10.995 -7.19956
lclavicle -1.82882e-014 1.55847e-013
lhumerus -329.071 -19.7679 -310.053
lradius 73.1885
lwrist -17.965
lhand -52.1357 -12.9094
lfingers 7.12502
lthumb -24.6376 15.5248
rfemur 12.5618 -9.64879 17.796
rtibia 47.4452
rfoot -17.6604 18.7696
rtoes -4.27089
lfemur -36.3551 13.1445 -11.103
ltibia 63.2875
lfoot 2.18632 3.55474
ltoes -25.9138
131
root 0.990217 17.7527 2.22806 -212.349 0.673889 181.869
lowerback 5.41404 0.844595 1.50117
upperback 14.3182 4.90437 -6.09812
thorax 13.3681 4.44268 -6.99554
lowerneck -2.8028 11.6719 -8.97909
upperneck 8.36339 15.8138 -5.80894
head 2.96171 6.98185 0.0638651
rclavicle 1.31198e-014 -4.13472e-014
rhumerus -4.55238 4.69605 -40.9664
rradius 48.054
rwrist 1.72262
rhand -15.6469 22.44
rfingers 7.12502
rthumb 10.5408 -7.27569
lclavicle 1.31198e-014 -4.13472e-014
lhumerus -328.712 -20.351 -310.94
lradius 73.9565
lwrist -17.8015
lhand -51.8883 -13.4829
lfingers 7.12502
lthumb -24.4004 14.9835
rfemur 11.3531 -9.54344 17.9917
rtibia 47.1275
rfoot -17.4897 18.3879
rtoes -3.92722
lfemur -36.0745 13.1245 -11.1079
ltibia 65.4154
lfoot 2.04226 4.01487
ltoes -26.1541
132
root 0.971229 17.8036 2.36002 -211.517 0.599763 181.77
lowerback 5.68756 0.780942 1.2918
upperback 14.3272 4.84312 -6.12061
thorax 13.1848 4.39538 -6.91987
lowerneck -2.76929 11.5575 -9.04116
upperneck 8.24959 15.6625 -5.69707
head 2.90278 6.92965 0.0978924
rclavicle -3.33958e-014 1.04958e-013
rhumerus -5.41044 4.97452 -41.0989
rradius 49.2775
rwrist 1.76649
rhand -15.5922 22.3746
rfingers 7.12502
rthumb 10.5935 -7.33845
lclavicle -3.33958e-014 1.04958e-013
lhumerus -328.517 -20.9039 -311.792
lradius 74.7785
lwrist -17.5725
lhand -51.682 -13.8651
lfingers 7.12502
lthumb -24.2027 14.6277
rfemur 10.1667 -9.4265 18.1184
rtibia 46.7997
rfoot -17.3147 18.0375
rtoes -3.69854
lfemur -35.7707 13.1445 -11.1185
ltibia 67.6574
lfoot 1.8223 4.54295
ltoes -26.3013
